<svg width="111" height="51" viewBox="0 0 111 51" fill="none" xmlns="http://www.w3.org/2000/svg">
<path d="M103.781 14.6953C104.739 15.0766 105.827 15.5301 106.732 15.874C107.559 16.2205 107.594 17.1284 106.811 17.9157L95.8209 28.9366C95.4395 29.3436 94.8907 29.669 94.3058 29.8348C93.7209 30.0006 93.1523 29.9921 92.7359 29.8111C91.9632 29.492 90.965 29.0751 89.8834 28.6343C82.2633 25.5482 77.2829 28.568 69.0263 35.6637L57.6568 45.4029C57.225 45.7733 56.6606 46.0445 56.0921 46.1547C55.5237 46.2648 54.9996 46.2046 54.6394 45.9876L44.4214 39.862C43.6965 39.4224 43.823 38.4754 44.7057 37.7341C47.1155 35.6797 51.9073 31.591 56.2055 27.8756C71.6964 14.4617 87.009 8.05431 103.781 14.6953Z" fill="#2DA771"/>
<path d="M6.32745 14.6939C5.36951 15.0753 4.28261 15.5289 3.37758 15.8729C2.55055 16.2195 2.51546 17.1275 3.29868 17.9149L14.2908 28.9365C14.6724 29.3436 15.2211 29.669 15.806 29.8348C16.3909 30.0006 16.9595 29.992 17.3758 29.811C18.1483 29.4918 19.1461 29.0748 20.2274 28.6339C27.8457 25.5469 32.8263 28.5668 41.0839 35.663L52.4548 45.4028C52.8866 45.7732 53.4511 46.0444 54.0195 46.1546C54.5879 46.2647 55.1119 46.2044 55.472 45.9874L65.6868 39.8604C66.4115 39.4207 66.2848 38.4736 65.4019 37.7322C62.9919 35.6777 58.1995 31.5887 53.9007 27.8731C38.4079 14.4584 23.0955 8.05105 6.32745 14.6939Z" fill="#2DA771"/>
<path d="M51.3831 5.8395C51.3831 2.75059 53.0344 0.227265 55.0558 0.227265C57.0773 0.227265 58.7286 2.75059 58.7286 5.8395V19.8918C58.7286 22.9807 57.0773 25.5041 55.0558 25.5041C53.0344 25.5041 51.3831 22.9807 51.3831 19.8918V5.8395Z" fill="#2DA771"/>
</svg>
